Coordinates
version=1
nRows=5
nColumns=40
inDegrees=yes

Units are S.I. units (second, meters, Newtons, ...)
If the header above contains a line with 'inDegrees', this indicates whether rotational values are in degrees (yes) or radians (no).

endheader
time	pelvis_tilt	pelvis_list	pelvis_rotation	pelvis_tx	pelvis_ty	pelvis_tz	hip_flexion_r	hip_adduction_r	hip_rotation_r	knee_angle_r	knee_angle_r_beta	ankle_angle_r	subtalar_angle_r	mtp_angle_r	hip_flexion_l	hip_adduction_l	hip_rotation_l	knee_angle_l	knee_angle_l_beta	ankle_angle_l	subtalar_angle_l	mtp_angle_l	lumbar_extension	lumbar_bending	lumbar_rotation	arm_flex_r	arm_add_r	arm_rot_r	elbow_flex_r	pro_sup_r	wrist_flex_r	wrist_dev_r	arm_flex_l	arm_add_l	arm_rot_l	elbow_flex_l	pro_sup_l	wrist_flex_l	wrist_dev_l
      4.19000000	    -25.73231692	      1.98945600	      6.42475045	      0.09942666	      0.67937704	     -1.15534772	     78.49902847	    -45.97807187	     -4.65670216	     75.77791843	      1.32257418	     20.39858407	      0.60336492	      0.00000000	     77.28575945	    -32.76786213	     -8.60334424	     71.05648497	      1.24016962	     18.17651739	     11.05896436	      0.00000000	      0.00000000	      0.00000000	      0.00000000	     44.08735058	    -15.46793222	     44.08735058	     75.17364520	     44.99168215	      0.00000000	      0.00000000	     44.08735058	    -15.46793222	     44.08735058	     75.17364520	     44.99168215	      0.00000000	      0.00000000
      4.19500000	    -25.70856122	      1.97435814	      6.45395456	      0.09933597	      0.67780769	     -1.15537625	     78.74140590	    -46.10747006	     -4.51044192	     76.10223817	      1.32823462	     20.54415560	      0.78808942	      0.00000000	     77.52849294	    -32.87150656	     -8.51290672	     71.38164850	      1.24584479	     18.26731851	     11.15307597	      0.00000000	      0.00000000	      0.00000000	      0.00000000	     44.10350127	    -15.45460103	     44.10350127	     75.16452973	     44.99269011	      0.00000000	      0.00000000	     44.10350127	    -15.45460103	     44.10350127	     75.16452973	     44.99269011	      0.00000000	      0.00000000
      4.20000000	    -26.02396010	      2.04609370	      6.55242547	      0.09887857	      0.67532263	     -1.15550313	     79.60109591	    -46.28978628	     -4.03177907	     76.51360588	      1.33541435	     20.71470824	      0.94261541	      0.00000000	     78.12094539	    -32.81029890	     -8.42871524	     71.75334583	      1.25233213	     18.30644809	     11.05454859	      0.00000000	      0.00000000	      0.00000000	      0.00000000	     44.12496869	    -15.43708792	     44.12496869	     75.15286865	     44.99388168	      0.00000000	      0.00000000	     44.12496869	    -15.43708792	     44.12496869	     75.15286865	     44.99388168	      0.00000000	      0.00000000
      4.20500000	    -26.03937715	      2.10350206	      6.50461082	      0.09871322	      0.67368971	     -1.15531656	     80.00701910	    -46.31207103	     -3.70063889	     76.84298926	      1.34116317	     20.84333647	      1.01998297	      0.00000000	     78.32179926	    -32.97542100	     -8.44646058	     72.07118549	      1.25787948	     18.43303382	     11.19035295	      0.00000000	      0.00000000	      0.00000000	      0.00000000	     44.14708168	    -15.41928894	     44.14708168	     75.14137392	     44.99495262	      0.00000000	      0.00000000	     44.14708168	    -15.41928894	     44.14708168	     75.14137392	     44.99495262	      0.00000000	      0.00000000
      4.21000000	    -25.83431097	      2.01228474	      6.45031410	      0.09877009	      0.67270784	     -1.15519491	     79.88895265	    -46.31705051	     -3.76086499	     77.08111866	      1.34531931	     20.88957959	      0.98828156	      0.00000000	     78.39175316	    -33.22575841	     -8.31488178	     72.35998280	      1.26291995	     18.56969863	     11.49855171	      0.00000000	      0.00000000	      0.00000000	      0.00000000	     44.16474633	    -15.40533387	     44.16474633	     75.13274079	     44.99565618	      0.00000000	      0.00000000	     44.16474633	    -15.40533387	     44.16474633	     75.13274079	     44.99565618	      0.00000000	      0.00000000
